<?xml version="1.0" encoding="UTF-8"?>
<svg width="900" height="900" viewBox="0 0 900 900" xmlns="http://www.w3.org/2000/svg">
  <defs>
    <radialGradient id="g" cx="50%" cy="50%" r="50%">
      <stop offset="0%" stop-color="#deb887"/>
      <stop offset="100%" stop-color="#7a4e2e"/>
    </radialGradient>
    <filter id="shadow" x="-50%" y="-50%" width="200%" height="200%">
      <feDropShadow dx="0" dy="18" stdDeviation="20" flood-color="#000" flood-opacity=".35"/>
    </filter>
  </defs>
  <circle cx="450" cy="450" r="360" fill="url(#g)" filter="url(#shadow)"/>
  <circle cx="450" cy="450" r="300" fill="#f5e7d6"/>
  <circle cx="330" cy="360" r="70" fill="#79c554"/>
  <circle cx="380" cy="360" r="40" fill="#6db84b"/>
  <g transform="translate(310,430) rotate(-20)">
    <ellipse cx="0" cy="0" rx="65" ry="45" fill="#ffd9b3" stroke="#e7b28a" stroke-width="6"/>
    <circle cx="-50" cy="10" r="28" fill="#ffc992" stroke="#e7b28a" stroke-width="6"/>
  </g>
  <g transform="translate(420,470) rotate(10)">
    <ellipse cx="0" cy="0" rx="65" ry="45" fill="#ffd9b3" stroke="#e7b28a" stroke-width="6"/>
    <circle cx="-50" cy="10" r="28" fill="#ffc992" stroke="#e7b28a" stroke-width="6"/>
  </g>
  <g transform="translate(510,430) rotate(5)">
    <ellipse cx="0" cy="0" rx="65" ry="45" fill="#ffd9b3" stroke="#e7b28a" stroke-width="6"/>
    <circle cx="-50" cy="10" r="28" fill="#ffc992" stroke="#e7b28a" stroke-width="6"/>
  </g>
  <g transform="translate(520,560)">
    <ellipse cx="-60" cy="0" rx="70" ry="45" fill="#e88a8a" stroke="#cc6d6d" stroke-width="6"/>
    <ellipse cx="20" cy="20" rx="70" ry="45" fill="#f19a9a" stroke="#cc6d6d" stroke-width="6"/>
  </g>
  <g transform="translate(610,360) rotate(18)">
    <rect x="-20" y="0" width="40" height="160" rx="20" fill="#f3d35c" stroke="#e0ba41" stroke-width="6"/>
    <rect x="-25" y="-20" width="50" height="25" rx="8" fill="#e44a4a"/>
    <circle cx="0" cy="-20" r="10" fill="#ba1f1f"/>
  </g>
  <g>
    <circle cx="450" cy="450" r="140" fill="rgba(255,255,255,0.45)"/>
    <text x="450" y="465" text-anchor="middle" font-family="Inter, Arial" font-size="64" font-weight="800" fill="#d10f2f">Cubaclick</text>
  </g>
</svg>